<svg xmlns="http://www.w3.org/2000/svg" xmlns:xlink="http://www.w3.org/1999/xlink" width="500" zoomAndPan="magnify" viewBox="0 0 375 374.999991" height="500" preserveAspectRatio="xMidYMid meet" version="1.0"><defs><clipPath id="id1"><path d="M 179 54 L 228 54 L 228 137 L 179 137 Z M 179 54 " clip-rule="nonzero"/></clipPath><clipPath id="id2"><path d="M 204.085938 151.085938 L 155.574219 67.378906 L 179.582031 53.464844 L 228.097656 137.171875 Z M 204.085938 151.085938 " clip-rule="nonzero"/></clipPath><clipPath id="id3"><path d="M 179 54 L 228 54 L 228 137 L 179 137 Z M 179 54 " clip-rule="nonzero"/></clipPath><clipPath id="id4"><path d="M 204.085938 151.085938 L 155.574219 67.378906 L 179.582031 53.464844 L 228.097656 137.171875 Z M 204.085938 151.085938 " clip-rule="nonzero"/></clipPath><clipPath id="id5"><path d="M 204.085938 151.085938 L 155.710938 67.621094 L 180.324219 53.355469 L 228.699219 136.824219 Z M 204.085938 151.085938 " clip-rule="nonzero"/></clipPath><clipPath id="id6"><path d="M 179.824219 107.730469 L 179.589844 54.964844 C 179.585938 54.785156 179.707031 54.628906 179.882812 54.578125 C 180.058594 54.53125 180.242188 54.605469 180.332031 54.757812 L 227.34375 135.878906 C 227.433594 136.03125 227.40625 136.230469 227.277344 136.355469 C 227.148438 136.484375 226.953125 136.511719 226.796875 136.417969 L 181.128906 109.984375 C 180.324219 109.519531 179.828125 108.664062 179.824219 107.730469 " clip-rule="nonzero"/></clipPath><clipPath id="id7"><path d="M 179 54 L 228 54 L 228 137 L 179 137 Z M 179 54 " clip-rule="nonzero"/></clipPath><clipPath id="id8"><path d="M 202.945312 39.695312 L 251.460938 123.402344 L 227.449219 137.316406 L 178.9375 53.609375 Z M 202.945312 39.695312 " clip-rule="nonzero"/></clipPath><clipPath id="id9"><path d="M 179 54 L 228 54 L 228 137 L 179 137 Z M 179 54 " clip-rule="nonzero"/></clipPath><clipPath id="id10"><path d="M 202.945312 39.695312 L 251.460938 123.402344 L 227.449219 137.316406 L 178.9375 53.609375 Z M 202.945312 39.695312 " clip-rule="nonzero"/></clipPath><clipPath id="id11"><path d="M 202.945312 39.695312 L 251.320312 123.160156 L 226.707031 137.425781 L 178.332031 53.957031 Z M 202.945312 39.695312 " clip-rule="nonzero"/></clipPath><clipPath id="id12"><path d="M 227.207031 83.050781 L 227.445312 135.8125 C 227.445312 135.992188 227.324219 136.152344 227.148438 136.203125 C 226.972656 136.25 226.789062 136.175781 226.699219 136.019531 L 179.6875 54.902344 C 179.597656 54.75 179.625 54.550781 179.753906 54.425781 C 179.882812 54.296875 180.082031 54.269531 180.234375 54.359375 L 225.902344 80.796875 C 226.707031 81.261719 227.203125 82.117188 227.207031 83.050781 " clip-rule="nonzero"/></clipPath><clipPath id="id13"><path d="M 227 54 L 275 54 L 275 137 L 227 137 Z M 227 54 " clip-rule="nonzero"/></clipPath><clipPath id="id14"><path d="M 298.886719 67.234375 L 250.324219 150.914062 L 226.324219 136.984375 L 274.882812 53.304688 Z M 298.886719 67.234375 " clip-rule="nonzero"/></clipPath><clipPath id="id15"><path d="M 227 54 L 275 54 L 275 137 L 227 137 Z M 227 54 " clip-rule="nonzero"/></clipPath><clipPath id="id16"><path d="M 298.886719 67.234375 L 250.324219 150.914062 L 226.324219 136.984375 L 274.882812 53.304688 Z M 298.886719 67.234375 " clip-rule="nonzero"/></clipPath><clipPath id="id17"><path d="M 298.886719 67.234375 L 250.464844 150.671875 L 225.859375 136.394531 L 274.28125 52.953125 Z M 298.886719 67.234375 " clip-rule="nonzero"/></clipPath><clipPath id="id18"><path d="M 273.304688 109.824219 L 227.625 136.234375 C 227.46875 136.324219 227.269531 136.296875 227.140625 136.171875 C 227.011719 136.042969 226.984375 135.847656 227.078125 135.691406 L 274.132812 54.601562 C 274.222656 54.445312 274.40625 54.371094 274.582031 54.417969 C 274.757812 54.46875 274.878906 54.628906 274.878906 54.808594 L 274.613281 107.570312 C 274.609375 108.503906 274.113281 109.359375 273.304688 109.824219 " clip-rule="nonzero"/></clipPath><clipPath id="id19"><path d="M 226 54 L 275 54 L 275 137 L 226 137 Z M 226 54 " clip-rule="nonzero"/></clipPath><clipPath id="id20"><path d="M 202.769531 123.546875 L 251.328125 39.867188 L 275.332031 53.792969 L 226.769531 137.476562 Z M 202.769531 123.546875 " clip-rule="nonzero"/></clipPath><clipPath id="id21"><path d="M 226 54 L 275 54 L 275 137 L 226 137 Z M 226 54 " clip-rule="nonzero"/></clipPath><clipPath id="id22"><path d="M 202.769531 123.546875 L 251.328125 39.867188 L 275.332031 53.792969 L 226.769531 137.476562 Z M 202.769531 123.546875 " clip-rule="nonzero"/></clipPath><clipPath id="id23"><path d="M 202.769531 123.546875 L 251.191406 40.105469 L 275.792969 54.382812 L 227.375 137.824219 Z M 202.769531 123.546875 " clip-rule="nonzero"/></clipPath><clipPath id="id24"><path d="M 228.347656 80.953125 L 274.03125 54.546875 C 274.183594 54.457031 274.382812 54.480469 274.511719 54.609375 C 274.640625 54.738281 274.667969 54.933594 274.578125 55.089844 L 227.519531 136.179688 C 227.429688 136.335938 227.246094 136.410156 227.074219 136.359375 C 226.898438 136.3125 226.777344 136.152344 226.777344 135.972656 L 227.042969 83.207031 C 227.046875 82.277344 227.542969 81.421875 228.347656 80.953125 " clip-rule="nonzero"/></clipPath><clipPath id="id25"><path d="M 180 54.574219 L 275 54.574219 L 275 82 L 180 82 Z M 180 54.574219 " clip-rule="nonzero"/></clipPath><clipPath id="id26"><path d="M 180 54.574219 L 275 54.574219 L 275 82 L 180 82 Z M 180 54.574219 " clip-rule="nonzero"/></clipPath><clipPath id="id27"><path d="M 226.265625 81.574219 L 180.496094 55.320312 C 180.339844 55.230469 180.261719 55.046875 180.308594 54.871094 C 180.355469 54.695312 180.511719 54.574219 180.6875 54.574219 L 274.445312 54.574219 C 274.625 54.574219 274.78125 54.695312 274.828125 54.871094 C 274.871094 55.046875 274.796875 55.230469 274.640625 55.320312 L 228.871094 81.574219 C 228.0625 82.039062 227.074219 82.039062 226.265625 81.574219 " clip-rule="nonzero"/></clipPath><clipPath id="id28"><path d="M 180 27.453125 L 275 27.453125 L 275 55.203125 L 180 55.203125 Z M 180 27.453125 " clip-rule="nonzero"/></clipPath><clipPath id="id29"><path d="M 180 27.453125 L 275 27.453125 L 275 55.203125 L 180 55.203125 Z M 180 27.453125 " clip-rule="nonzero"/></clipPath><clipPath id="id30"><path d="M 228.671875 28.203125 L 274.441406 54.457031 C 274.597656 54.546875 274.671875 54.730469 274.628906 54.90625 C 274.582031 55.082031 274.425781 55.203125 274.246094 55.203125 L 180.488281 55.203125 C 180.3125 55.203125 180.15625 55.082031 180.109375 54.90625 C 180.0625 54.730469 180.140625 54.546875 180.296875 54.457031 L 226.066406 28.203125 C 226.875 27.738281 227.863281 27.738281 228.671875 28.203125 " clip-rule="nonzero"/></clipPath><clipPath id="id31"><path d="M 132 135 L 181 135 L 181 218 L 132 218 Z M 132 135 " clip-rule="nonzero"/></clipPath><clipPath id="id32"><path d="M 156.914062 232.152344 L 108.402344 148.445312 L 132.410156 134.53125 L 180.925781 218.238281 Z M 156.914062 232.152344 " clip-rule="nonzero"/></clipPath><clipPath id="id33"><path d="M 132 135 L 181 135 L 181 218 L 132 218 Z M 132 135 " clip-rule="nonzero"/></clipPath><clipPath id="id34"><path d="M 156.914062 232.152344 L 108.402344 148.445312 L 132.410156 134.53125 L 180.925781 218.238281 Z M 156.914062 232.152344 " clip-rule="nonzero"/></clipPath><clipPath id="id35"><path d="M 156.917969 232.152344 L 108.542969 148.6875 L 133.152344 134.421875 L 181.527344 217.890625 Z M 156.917969 232.152344 " clip-rule="nonzero"/></clipPath><clipPath id="id36"><path d="M 132.652344 188.796875 L 132.417969 136.03125 C 132.417969 135.851562 132.539062 135.695312 132.710938 135.644531 C 132.886719 135.597656 133.070312 135.671875 133.160156 135.828125 L 180.175781 216.945312 C 180.265625 217.097656 180.238281 217.296875 180.109375 217.421875 C 179.980469 217.550781 179.78125 217.578125 179.625 217.488281 L 133.960938 191.050781 C 133.152344 190.585938 132.65625 189.730469 132.652344 188.796875 " clip-rule="nonzero"/></clipPath><clipPath id="id37"><path d="M 132 135 L 181 135 L 181 218 L 132 218 Z M 132 135 " clip-rule="nonzero"/></clipPath><clipPath id="id38"><path d="M 155.773438 120.761719 L 204.289062 204.46875 L 180.277344 218.382812 L 131.765625 134.675781 Z M 155.773438 120.761719 " clip-rule="nonzero"/></clipPath><clipPath id="id39"><path d="M 132 135 L 181 135 L 181 218 L 132 218 Z M 132 135 " clip-rule="nonzero"/></clipPath><clipPath id="id40"><path d="M 155.773438 120.761719 L 204.289062 204.46875 L 180.277344 218.382812 L 131.765625 134.675781 Z M 155.773438 120.761719 " clip-rule="nonzero"/></clipPath><clipPath id="id41"><path d="M 155.773438 120.761719 L 204.148438 204.226562 L 179.535156 218.492188 L 131.160156 135.023438 Z M 155.773438 120.761719 " clip-rule="nonzero"/></clipPath><clipPath id="id42"><path d="M 180.039062 164.117188 L 180.273438 216.882812 C 180.273438 217.058594 180.152344 217.21875 179.976562 217.269531 C 179.804688 217.316406 179.617188 217.242188 179.527344 217.085938 L 132.515625 135.96875 C 132.425781 135.816406 132.453125 135.617188 132.582031 135.492188 C 132.710938 135.363281 132.910156 135.335938 133.066406 135.425781 L 178.730469 161.863281 C 179.539062 162.328125 180.035156 163.183594 180.039062 164.117188 " clip-rule="nonzero"/></clipPath><clipPath id="id43"><path d="M 179 135 L 228 135 L 228 218 L 179 218 Z M 179 135 " clip-rule="nonzero"/></clipPath><clipPath id="id44"><path d="M 251.714844 148.300781 L 203.15625 231.980469 L 179.152344 218.050781 L 227.714844 134.371094 Z M 251.714844 148.300781 " clip-rule="nonzero"/></clipPath><clipPath id="id45"><path d="M 179 135 L 228 135 L 228 218 L 179 218 Z M 179 135 " clip-rule="nonzero"/></clipPath><clipPath id="id46"><path d="M 251.714844 148.300781 L 203.15625 231.980469 L 179.152344 218.050781 L 227.714844 134.371094 Z M 251.714844 148.300781 " clip-rule="nonzero"/></clipPath><clipPath id="id47"><path d="M 251.714844 148.300781 L 203.292969 231.742188 L 178.691406 217.460938 L 227.109375 134.023438 Z M 251.714844 148.300781 " clip-rule="nonzero"/></clipPath><clipPath id="id48"><path d="M 226.132812 190.890625 L 180.453125 217.300781 C 180.296875 217.390625 180.101562 217.363281 179.972656 217.238281 C 179.84375 217.109375 179.816406 216.914062 179.90625 216.757812 L 226.960938 135.667969 C 227.050781 135.511719 227.238281 135.4375 227.410156 135.484375 C 227.585938 135.535156 227.707031 135.695312 227.707031 135.875 L 227.441406 188.636719 C 227.4375 189.570312 226.941406 190.425781 226.132812 190.890625 " clip-rule="nonzero"/></clipPath><clipPath id="id49"><path d="M 179 135 L 228 135 L 228 218 L 179 218 Z M 179 135 " clip-rule="nonzero"/></clipPath><clipPath id="id50"><path d="M 155.597656 204.613281 L 204.15625 120.933594 L 228.160156 134.859375 L 179.597656 218.542969 Z M 155.597656 204.613281 " clip-rule="nonzero"/></clipPath><clipPath id="id51"><path d="M 179 135 L 228 135 L 228 218 L 179 218 Z M 179 135 " clip-rule="nonzero"/></clipPath><clipPath id="id52"><path d="M 155.597656 204.613281 L 204.15625 120.933594 L 228.160156 134.859375 L 179.597656 218.542969 Z M 155.597656 204.613281 " clip-rule="nonzero"/></clipPath><clipPath id="id53"><path d="M 155.597656 204.613281 L 204.019531 121.171875 L 228.621094 135.449219 L 180.203125 218.890625 Z M 155.597656 204.613281 " clip-rule="nonzero"/></clipPath><clipPath id="id54"><path d="M 181.179688 162.023438 L 226.859375 135.613281 C 227.015625 135.523438 227.210938 135.546875 227.339844 135.675781 C 227.46875 135.804688 227.496094 136 227.40625 136.15625 L 180.351562 217.246094 C 180.261719 217.402344 180.078125 217.476562 179.902344 217.425781 C 179.726562 217.378906 179.605469 217.21875 179.605469 217.039062 L 179.871094 164.273438 C 179.875 163.34375 180.371094 162.488281 181.179688 162.023438 " clip-rule="nonzero"/></clipPath><clipPath id="id55"><path d="M 133 135.640625 L 228 135.640625 L 228 163 L 133 163 Z M 133 135.640625 " clip-rule="nonzero"/></clipPath><clipPath id="id56"><path d="M 133 135.640625 L 228 135.640625 L 228 163 L 133 163 Z M 133 135.640625 " clip-rule="nonzero"/></clipPath><clipPath id="id57"><path d="M 179.09375 162.640625 L 133.324219 136.386719 C 133.167969 136.296875 133.089844 136.113281 133.136719 135.9375 C 133.183594 135.761719 133.339844 135.640625 133.519531 135.640625 L 227.273438 135.640625 C 227.453125 135.640625 227.609375 135.761719 227.65625 135.9375 C 227.703125 136.113281 227.625 136.296875 227.46875 136.386719 L 181.699219 162.640625 C 180.890625 163.105469 179.902344 163.105469 179.09375 162.640625 " clip-rule="nonzero"/></clipPath><clipPath id="id58"><path d="M 132 108.519531 L 228 108.519531 L 228 136.269531 L 132 136.269531 Z M 132 108.519531 " clip-rule="nonzero"/></clipPath><clipPath id="id59"><path d="M 132 108.523438 L 228 108.523438 L 228 136.269531 L 132 136.269531 Z M 132 108.523438 " clip-rule="nonzero"/></clipPath><clipPath id="id60"><path d="M 181.5 109.269531 L 227.269531 135.523438 C 227.425781 135.613281 227.503906 135.796875 227.457031 135.972656 C 227.410156 136.148438 227.253906 136.269531 227.074219 136.269531 L 133.320312 136.269531 C 133.140625 136.269531 132.984375 136.148438 132.9375 135.972656 C 132.890625 135.796875 132.96875 135.613281 133.125 135.523438 L 178.894531 109.269531 C 179.703125 108.804688 180.691406 108.804688 181.5 109.269531 " clip-rule="nonzero"/></clipPath><clipPath id="id61"><path d="M 85 135 L 133 135 L 133 218 L 85 218 Z M 85 135 " clip-rule="nonzero"/></clipPath><clipPath id="id62"><path d="M 156.96875 148.6875 L 108.40625 232.371094 L 84.40625 218.441406 L 132.964844 134.761719 Z M 156.96875 148.6875 " clip-rule="nonzero"/></clipPath><clipPath id="id63"><path d="M 85 135 L 133 135 L 133 218 L 85 218 Z M 85 135 " clip-rule="nonzero"/></clipPath><clipPath id="id64"><path d="M 156.96875 148.6875 L 108.40625 232.371094 L 84.40625 218.441406 L 132.964844 134.761719 Z M 156.96875 148.6875 " clip-rule="nonzero"/></clipPath><clipPath id="id65"><path d="M 156.96875 148.6875 L 108.546875 232.128906 L 83.941406 217.851562 L 132.363281 134.410156 Z M 156.96875 148.6875 " clip-rule="nonzero"/></clipPath><clipPath id="id66"><path d="M 131.386719 191.28125 L 85.707031 217.691406 C 85.550781 217.78125 85.351562 217.753906 85.222656 217.625 C 85.09375 217.5 85.066406 217.300781 85.15625 217.148438 L 132.214844 136.054688 C 132.304688 135.902344 132.488281 135.828125 132.664062 135.875 C 132.839844 135.925781 132.960938 136.082031 132.957031 136.261719 L 132.695312 189.027344 C 132.691406 189.960938 132.195312 190.816406 131.386719 191.28125 " clip-rule="nonzero"/></clipPath><clipPath id="id67"><path d="M 84 135 L 133 135 L 133 218 L 84 218 Z M 84 135 " clip-rule="nonzero"/></clipPath><clipPath id="id68"><path d="M 60.851562 205.003906 L 109.410156 121.320312 L 133.410156 135.25 L 84.851562 218.929688 Z M 60.851562 205.003906 " clip-rule="nonzero"/></clipPath><clipPath id="id69"><path d="M 84 135 L 133 135 L 133 218 L 84 218 Z M 84 135 " clip-rule="nonzero"/></clipPath><clipPath id="id70"><path d="M 60.851562 205.003906 L 109.410156 121.320312 L 133.410156 135.25 L 84.851562 218.929688 Z M 60.851562 205.003906 " clip-rule="nonzero"/></clipPath><clipPath id="id71"><path d="M 60.851562 205.003906 L 109.269531 121.5625 L 133.875 135.839844 L 85.457031 219.28125 Z M 60.851562 205.003906 " clip-rule="nonzero"/></clipPath><clipPath id="id72"><path d="M 86.429688 162.410156 L 132.109375 136 C 132.265625 135.910156 132.464844 135.9375 132.59375 136.066406 C 132.722656 136.191406 132.75 136.390625 132.660156 136.542969 L 85.601562 217.636719 C 85.511719 217.792969 85.328125 217.867188 85.152344 217.816406 C 84.980469 217.769531 84.859375 217.609375 84.859375 217.429688 L 85.125 164.664062 C 85.128906 163.734375 85.625 162.878906 86.429688 162.410156 " clip-rule="nonzero"/></clipPath><clipPath id="id73"><path d="M 85 217.175781 L 181 217.175781 L 181 244.925781 L 85 244.925781 Z M 85 217.175781 " clip-rule="nonzero"/></clipPath><clipPath id="id74"><path d="M 85 217.175781 L 181 217.175781 L 181 244.925781 L 85 244.925781 Z M 85 217.175781 " clip-rule="nonzero"/></clipPath><clipPath id="id75"><path d="M 131.558594 244.179688 L 85.789062 217.921875 C 85.632812 217.835938 85.554688 217.648438 85.601562 217.472656 C 85.644531 217.300781 85.800781 217.175781 85.980469 217.175781 L 179.738281 217.175781 C 179.917969 217.175781 180.074219 217.300781 180.117188 217.472656 C 180.164062 217.648438 180.085938 217.835938 179.933594 217.921875 L 134.164062 244.179688 C 133.355469 244.640625 132.363281 244.640625 131.558594 244.179688 " clip-rule="nonzero"/></clipPath><clipPath id="id76"><path d="M 85 190.058594 L 180 190.058594 L 180 217.808594 L 85 217.808594 Z M 85 190.058594 " clip-rule="nonzero"/></clipPath><clipPath id="id77"><path d="M 85 190.058594 L 180 190.058594 L 180 217.808594 L 85 217.808594 Z M 85 190.058594 " clip-rule="nonzero"/></clipPath><clipPath id="id78"><path d="M 133.964844 190.804688 L 179.734375 217.058594 C 179.886719 217.148438 179.964844 217.332031 179.917969 217.507812 C 179.875 217.683594 179.71875 217.808594 179.539062 217.808594 L 85.78125 217.808594 C 85.601562 217.808594 85.445312 217.683594 85.402344 217.507812 C 85.355469 217.332031 85.433594 217.148438 85.589844 217.058594 L 131.359375 190.804688 C 132.164062 190.339844 133.15625 190.339844 133.964844 190.804688 " clip-rule="nonzero"/></clipPath><clipPath id="id79"><path d="M 179 217 L 228 217 L 228 300 L 179 300 Z M 179 217 " clip-rule="nonzero"/></clipPath><clipPath id="id80"><path d="M 204.085938 313.691406 L 155.574219 229.980469 L 179.582031 216.066406 L 228.097656 299.773438 Z M 204.085938 313.691406 " clip-rule="nonzero"/></clipPath><clipPath id="id81"><path d="M 179 217 L 228 217 L 228 300 L 179 300 Z M 179 217 " clip-rule="nonzero"/></clipPath><clipPath id="id82"><path d="M 204.085938 313.691406 L 155.574219 229.980469 L 179.582031 216.066406 L 228.097656 299.773438 Z M 204.085938 313.691406 " clip-rule="nonzero"/></clipPath><clipPath id="id83"><path d="M 204.085938 313.6875 L 155.710938 230.222656 L 180.324219 215.957031 L 228.699219 299.425781 Z M 204.085938 313.6875 " clip-rule="nonzero"/></clipPath><clipPath id="id84"><path d="M 179.824219 270.332031 L 179.589844 217.570312 C 179.585938 217.390625 179.707031 217.230469 179.882812 217.183594 C 180.058594 217.132812 180.242188 217.207031 180.332031 217.363281 L 227.34375 298.480469 C 227.433594 298.636719 227.40625 298.832031 227.277344 298.960938 C 227.148438 299.085938 226.953125 299.113281 226.796875 299.023438 L 181.128906 272.589844 C 180.324219 272.121094 179.828125 271.265625 179.824219 270.332031 " clip-rule="nonzero"/></clipPath><clipPath id="id85"><path d="M 179 216 L 228 216 L 228 299 L 179 299 Z M 179 216 " clip-rule="nonzero"/></clipPath><clipPath id="id86"><path d="M 202.945312 202.296875 L 251.460938 286.003906 L 227.449219 299.917969 L 178.9375 216.210938 Z M 202.945312 202.296875 " clip-rule="nonzero"/></clipPath><clipPath id="id87"><path d="M 179 216 L 228 216 L 228 299 L 179 299 Z M 179 216 " clip-rule="nonzero"/></clipPath><clipPath id="id88"><path d="M 202.945312 202.296875 L 251.460938 286.003906 L 227.449219 299.917969 L 178.9375 216.210938 Z M 202.945312 202.296875 " clip-rule="nonzero"/></clipPath><clipPath id="id89"><path d="M 202.945312 202.296875 L 251.320312 285.765625 L 226.707031 300.027344 L 178.332031 216.5625 Z M 202.945312 202.296875 " clip-rule="nonzero"/></clipPath><clipPath id="id90"><path d="M 227.207031 245.652344 L 227.445312 298.417969 C 227.445312 298.597656 227.324219 298.753906 227.148438 298.804688 C 226.972656 298.851562 226.789062 298.777344 226.699219 298.625 L 179.6875 217.507812 C 179.597656 217.351562 179.625 217.15625 179.753906 217.027344 C 179.882812 216.898438 180.082031 216.875 180.234375 216.964844 L 225.902344 243.398438 C 226.707031 243.863281 227.203125 244.71875 227.207031 245.652344 " clip-rule="nonzero"/></clipPath><clipPath id="id91"><path d="M 227 217 L 275 217 L 275 299 L 227 299 Z M 227 217 " clip-rule="nonzero"/></clipPath><clipPath id="id92"><path d="M 298.886719 229.835938 L 250.324219 313.515625 L 226.324219 299.589844 L 274.882812 215.90625 Z M 298.886719 229.835938 " clip-rule="nonzero"/></clipPath><clipPath id="id93"><path d="M 227 217 L 275 217 L 275 299 L 227 299 Z M 227 217 " clip-rule="nonzero"/></clipPath><clipPath id="id94"><path d="M 298.886719 229.835938 L 250.324219 313.515625 L 226.324219 299.589844 L 274.882812 215.90625 Z M 298.886719 229.835938 " clip-rule="nonzero"/></clipPath><clipPath id="id95"><path d="M 298.886719 229.835938 L 250.464844 313.277344 L 225.859375 299 L 274.28125 215.558594 Z M 298.886719 229.835938 " clip-rule="nonzero"/></clipPath><clipPath id="id96"><path d="M 273.304688 272.425781 L 227.625 298.835938 C 227.46875 298.925781 227.269531 298.902344 227.140625 298.773438 C 227.011719 298.644531 226.984375 298.449219 227.078125 298.292969 L 274.132812 217.203125 C 274.222656 217.046875 274.40625 216.972656 274.582031 217.023438 C 274.757812 217.070312 274.878906 217.230469 274.878906 217.410156 L 274.613281 270.175781 C 274.609375 271.105469 274.113281 271.960938 273.304688 272.425781 " clip-rule="nonzero"/></clipPath><clipPath id="id97"><path d="M 226 217 L 275 217 L 275 299 L 226 299 Z M 226 217 " clip-rule="nonzero"/></clipPath><clipPath id="id98"><path d="M 202.769531 286.148438 L 251.328125 202.46875 L 275.332031 216.398438 L 226.769531 300.078125 Z M 202.769531 286.148438 " clip-rule="nonzero"/></clipPath><clipPath id="id99"><path d="M 226 217 L 275 217 L 275 299 L 226 299 Z M 226 217 " clip-rule="nonzero"/></clipPath><clipPath id="id100"><path d="M 202.769531 286.148438 L 251.328125 202.46875 L 275.332031 216.398438 L 226.769531 300.078125 Z M 202.769531 286.148438 " clip-rule="nonzero"/></clipPath><clipPath id="id101"><path d="M 202.769531 286.148438 L 251.191406 202.710938 L 275.792969 216.988281 L 227.375 300.425781 Z M 202.769531 286.148438 " clip-rule="nonzero"/></clipPath><clipPath id="id102"><path d="M 228.347656 243.558594 L 274.03125 217.148438 C 274.183594 217.058594 274.382812 217.085938 274.511719 217.210938 C 274.640625 217.339844 274.667969 217.535156 274.578125 217.691406 L 227.519531 298.78125 C 227.429688 298.9375 227.246094 299.011719 227.074219 298.964844 C 226.898438 298.914062 226.777344 298.753906 226.777344 298.574219 L 227.042969 245.8125 C 227.046875 244.878906 227.542969 244.023438 228.347656 243.558594 " clip-rule="nonzero"/></clipPath><clipPath id="id103"><path d="M 180 217.175781 L 275 217.175781 L 275 244.925781 L 180 244.925781 Z M 180 217.175781 " clip-rule="nonzero"/></clipPath><clipPath id="id104"><path d="M 180 217.175781 L 275 217.175781 L 275 244.925781 L 180 244.925781 Z M 180 217.175781 " clip-rule="nonzero"/></clipPath><clipPath id="id105"><path d="M 226.265625 244.179688 L 180.496094 217.921875 C 180.339844 217.835938 180.261719 217.648438 180.308594 217.472656 C 180.355469 217.300781 180.511719 217.175781 180.6875 217.175781 L 274.445312 217.175781 C 274.625 217.175781 274.78125 217.300781 274.828125 217.472656 C 274.871094 217.648438 274.796875 217.835938 274.640625 217.921875 L 228.871094 244.179688 C 228.0625 244.640625 227.074219 244.640625 226.265625 244.179688 " clip-rule="nonzero"/></clipPath><clipPath id="id106"><path d="M 180 190.058594 L 275 190.058594 L 275 217.808594 L 180 217.808594 Z M 180 190.058594 " clip-rule="nonzero"/></clipPath><clipPath id="id107"><path d="M 180 190.058594 L 275 190.058594 L 275 217.808594 L 180 217.808594 Z M 180 190.058594 " clip-rule="nonzero"/></clipPath><clipPath id="id108"><path d="M 228.671875 190.804688 L 274.441406 217.058594 C 274.597656 217.148438 274.671875 217.332031 274.628906 217.507812 C 274.582031 217.683594 274.425781 217.808594 274.246094 217.808594 L 180.488281 217.808594 C 180.3125 217.808594 180.15625 217.683594 180.109375 217.507812 C 180.0625 217.332031 180.140625 217.148438 180.296875 217.058594 L 226.066406 190.804688 C 226.875 190.339844 227.863281 190.339844 228.671875 190.804688 " clip-rule="nonzero"/></clipPath><clipPath id="id109"><path d="M 133 217 L 182 217 L 182 299 L 133 299 Z M 133 217 " clip-rule="nonzero"/></clipPath><clipPath id="id110"><path d="M 205.027344 229.835938 L 156.46875 313.515625 L 132.46875 299.589844 L 181.027344 215.90625 Z M 205.027344 229.835938 " clip-rule="nonzero"/></clipPath><clipPath id="id111"><path d="M 133 217 L 182 217 L 182 299 L 133 299 Z M 133 217 " clip-rule="nonzero"/></clipPath><clipPath id="id112"><path d="M 205.027344 229.835938 L 156.46875 313.515625 L 132.46875 299.589844 L 181.027344 215.90625 Z M 205.027344 229.835938 " clip-rule="nonzero"/></clipPath><clipPath id="id113"><path d="M 205.027344 229.835938 L 156.609375 313.277344 L 132.003906 299 L 180.425781 215.558594 Z M 205.027344 229.835938 " clip-rule="nonzero"/></clipPath><clipPath id="id114"><path d="M 179.449219 272.425781 L 133.769531 298.835938 C 133.613281 298.925781 133.414062 298.902344 133.285156 298.773438 C 133.15625 298.644531 133.128906 298.449219 133.21875 298.292969 L 180.277344 217.203125 C 180.367188 217.046875 180.550781 216.972656 180.726562 217.023438 C 180.898438 217.070312 181.019531 217.230469 181.019531 217.410156 L 180.757812 270.175781 C 180.75 271.105469 180.253906 271.960938 179.449219 272.425781 " clip-rule="nonzero"/></clipPath><clipPath id="id115"><path d="M 132 217 L 181 217 L 181 299 L 132 299 Z M 132 217 " clip-rule="nonzero"/></clipPath><clipPath id="id116"><path d="M 108.910156 286.148438 L 157.472656 202.46875 L 181.472656 216.398438 L 132.914062 300.078125 Z M 108.910156 286.148438 " clip-rule="nonzero"/></clipPath><clipPath id="id117"><path d="M 132 217 L 181 217 L 181 299 L 132 299 Z M 132 217 " clip-rule="nonzero"/></clipPath><clipPath id="id118"><path d="M 108.910156 286.148438 L 157.472656 202.46875 L 181.472656 216.398438 L 132.914062 300.078125 Z M 108.910156 286.148438 " clip-rule="nonzero"/></clipPath><clipPath id="id119"><path d="M 108.914062 286.148438 L 157.332031 202.710938 L 181.9375 216.988281 L 133.515625 300.425781 Z M 108.914062 286.148438 " clip-rule="nonzero"/></clipPath><clipPath id="id120"><path d="M 134.492188 243.558594 L 180.171875 217.148438 C 180.328125 217.058594 180.527344 217.085938 180.65625 217.210938 C 180.785156 217.339844 180.8125 217.535156 180.722656 217.691406 L 133.664062 298.78125 C 133.574219 298.9375 133.390625 299.011719 133.214844 298.964844 C 133.039062 298.914062 132.917969 298.753906 132.921875 298.574219 L 133.183594 245.8125 C 133.1875 244.878906 133.683594 244.023438 134.492188 243.558594 " clip-rule="nonzero"/></clipPath><clipPath id="id121"><path d="M 133 298.566406 L 228 298.566406 L 228 326 L 133 326 Z M 133 298.566406 " clip-rule="nonzero"/></clipPath><clipPath id="id122"><path d="M 133 298.566406 L 228 298.566406 L 228 326 L 133 326 Z M 133 298.566406 " clip-rule="nonzero"/></clipPath><clipPath id="id123"><path d="M 179.09375 325.566406 L 133.324219 299.3125 C 133.167969 299.222656 133.089844 299.039062 133.136719 298.863281 C 133.183594 298.6875 133.339844 298.566406 133.519531 298.566406 L 227.273438 298.566406 C 227.453125 298.566406 227.609375 298.6875 227.65625 298.863281 C 227.703125 299.039062 227.625 299.222656 227.46875 299.3125 L 181.699219 325.566406 C 180.890625 326.03125 179.902344 326.03125 179.09375 325.566406 " clip-rule="nonzero"/></clipPath><clipPath id="id124"><path d="M 132 271.445312 L 228 271.445312 L 228 299.195312 L 132 299.195312 Z M 132 271.445312 " clip-rule="nonzero"/></clipPath><clipPath id="id125"><path d="M 132 271.445312 L 228 271.445312 L 228 299.195312 L 132 299.195312 Z M 132 271.445312 " clip-rule="nonzero"/></clipPath><clipPath id="id126"><path d="M 181.5 272.195312 L 227.269531 298.449219 C 227.425781 298.539062 227.503906 298.722656 227.457031 298.898438 C 227.410156 299.074219 227.253906 299.195312 227.074219 299.195312 L 133.320312 299.195312 C 133.140625 299.195312 132.984375 299.074219 132.9375 298.898438 C 132.890625 298.722656 132.96875 298.539062 133.125 298.449219 L 178.894531 272.195312 C 179.703125 271.730469 180.691406 271.730469 181.5 272.195312 " clip-rule="nonzero"/></clipPath></defs><rect x="-37.5" width="450" fill="#ffffff" y="-37.499999" height="449.999989" fill-opacity="1"/><rect x="-37.5" width="450" fill="#ffffff" y="-37.499999" height="449.999989" fill-opacity="1"/><rect x="-37.5" width="450" fill="#ffffff" y="-37.499999" height="449.999989" fill-opacity="1"/><rect x="-37.5" width="450" fill="#ffffff" y="-37.499999" height="449.999989" fill-opacity="1"/><g clip-path="url(#id1)"><g clip-path="url(#id2)"><path fill="#ffffff" d="M 179.824219 107.730469 L 179.589844 54.964844 C 179.585938 54.785156 179.707031 54.628906 179.882812 54.578125 C 180.058594 54.53125 180.242188 54.605469 180.332031 54.757812 L 227.34375 135.878906 C 227.433594 136.03125 227.40625 136.230469 227.277344 136.355469 C 227.148438 136.484375 226.953125 136.511719 226.796875 136.417969 L 181.128906 109.984375 C 180.324219 109.519531 179.828125 108.664062 179.824219 107.730469 " fill-opacity="1" fill-rule="nonzero"/></g></g><g clip-path="url(#id3)"><g clip-path="url(#id4)"><g clip-path="url(#id5)"><g clip-path="url(#id6)"><path stroke-linecap="butt" transform="matrix(-0.375304, -0.647563, 0.65638, -0.380415, 204.087221, 151.086626)" fill="none" stroke-linejoin="miter" d="M 66.373539 0.986118 L 127.52595 35.594705 C 127.736281 35.709016 127.835773 35.950391 127.776708 36.184423 C 127.713128 36.415873 127.504334 36.576195 127.268037 36.577964 L 1.998742 36.574338 C 1.762446 36.576107 1.550474 36.413248 1.49234 36.183618 C 1.42969 35.951407 1.528933 35.710592 1.741986 35.594363 L 62.894009 0.984298 C 63.970461 0.373842 65.291717 0.373507 66.373539 0.986118 " stroke="#000000" stroke-width="2" stroke-opacity="1" stroke-miterlimit="4"/></g></g></g></g><g clip-path="url(#id7)"><g clip-path="url(#id8)"><path fill="#ffffff" d="M 227.207031 83.050781 L 227.445312 135.8125 C 227.445312 135.992188 227.324219 136.152344 227.148438 136.203125 C 226.972656 136.25 226.789062 136.175781 226.699219 136.019531 L 179.6875 54.902344 C 179.597656 54.75 179.625 54.550781 179.753906 54.425781 C 179.882812 54.296875 180.082031 54.269531 180.234375 54.359375 L 225.902344 80.796875 C 226.707031 81.261719 227.203125 82.117188 227.207031 83.050781 " fill-opacity="1" fill-rule="nonzero"/></g></g><g clip-path="url(#id9)"><g clip-path="url(#id10)"><g clip-path="url(#id11)"><g clip-path="url(#id12)"><path stroke-linecap="butt" transform="matrix(0.375304, 0.647563, -0.65638, 0.380415, 202.944908, 39.693887)" fill="none" stroke-linejoin="miter" d="M 66.373802 0.987609 L 127.524315 35.589158 C 127.732028 35.707924 127.836036 35.951881 127.776971 36.185913 C 127.713391 36.417364 127.504597 36.577686 127.263785 36.576872 L 1.999005 36.575829 C 1.762709 36.577597 1.550737 36.414738 1.492603 36.185109 C 1.429953 35.952897 1.531813 35.707627 1.737734 35.593271 L 62.894272 0.985788 C 63.970724 0.375333 65.291981 0.374997 66.373802 0.987609 " stroke="#000000" stroke-width="2" stroke-opacity="1" stroke-miterlimit="4"/></g></g></g></g><g clip-path="url(#id13)"><g clip-path="url(#id14)"><path fill="#ffffff" d="M 273.304688 109.824219 L 227.625 136.234375 C 227.46875 136.324219 227.269531 136.296875 227.140625 136.171875 C 227.011719 136.042969 226.984375 135.847656 227.078125 135.691406 L 274.132812 54.601562 C 274.222656 54.445312 274.40625 54.371094 274.582031 54.417969 C 274.757812 54.46875 274.878906 54.628906 274.878906 54.808594 L 274.613281 107.570312 C 274.609375 108.503906 274.113281 109.359375 273.304688 109.824219 " fill-opacity="1" fill-rule="nonzero"/></g></g><g clip-path="url(#id15)"><g clip-path="url(#id16)"><g clip-path="url(#id17)"><g clip-path="url(#id18)"><path stroke-linecap="butt" transform="matrix(-0.375658, 0.647358, -0.656172, -0.380773, 298.885415, 67.232602)" fill="none" stroke-linejoin="miter" d="M 66.373133 0.986227 L 127.525085 35.592194 C 127.733689 35.710892 127.835684 35.956107 127.777677 36.185768 C 127.715156 36.418013 127.507789 36.578402 127.264358 36.574892 L 2.002379 36.576367 C 1.761567 36.57731 1.552684 36.417101 1.488976 36.185685 C 1.429782 35.951684 1.533654 35.707672 1.741302 35.588794 L 62.890984 0.985469 C 63.972467 0.372274 65.293724 0.371898 66.373133 0.986227 " stroke="#000000" stroke-width="2" stroke-opacity="1" stroke-miterlimit="4"/></g></g></g></g><g clip-path="url(#id19)"><g clip-path="url(#id20)"><path fill="#ffffff" d="M 228.347656 80.953125 L 274.03125 54.546875 C 274.183594 54.457031 274.382812 54.480469 274.511719 54.609375 C 274.640625 54.738281 274.667969 54.933594 274.578125 55.089844 L 227.519531 136.179688 C 227.429688 136.335938 227.246094 136.410156 227.074219 136.359375 C 226.898438 136.3125 226.777344 136.152344 226.777344 135.972656 L 227.042969 83.207031 C 227.046875 82.277344 227.542969 81.421875 228.347656 80.953125 " fill-opacity="1" fill-rule="nonzero"/></g></g><g clip-path="url(#id21)"><g clip-path="url(#id22)"><g clip-path="url(#id23)"><g clip-path="url(#id24)"><path stroke-linecap="butt" transform="matrix(0.375658, -0.647358, 0.656172, 0.380773, 202.769302, 123.547257)" fill="none" stroke-linejoin="miter" d="M 66.374447 0.981856 L 127.524505 35.594861 C 127.730489 35.709106 127.836998 35.951737 127.774477 36.183982 C 127.711956 36.416227 127.504589 36.576616 127.263778 36.57756 L 1.999179 36.574581 C 1.758368 36.575524 1.549484 36.415315 1.49291 36.185768 C 1.429201 35.954352 1.533074 35.710339 1.740721 35.591461 L 62.894918 0.985552 C 63.971887 0.374942 65.293143 0.374566 66.374447 0.981856 " stroke="#000000" stroke-width="2" stroke-opacity="1" stroke-miterlimit="4"/></g></g></g></g><g clip-path="url(#id25)"><path fill="#ffffff" d="M 226.265625 81.574219 L 180.496094 55.320312 C 180.339844 55.230469 180.261719 55.046875 180.308594 54.871094 C 180.355469 54.695312 180.511719 54.574219 180.6875 54.574219 L 274.445312 54.574219 C 274.625 54.574219 274.78125 54.695312 274.828125 54.871094 C 274.871094 55.046875 274.796875 55.230469 274.640625 55.320312 L 228.871094 81.574219 C 228.0625 82.039062 227.074219 82.039062 226.265625 81.574219 " fill-opacity="1" fill-rule="nonzero"/></g><g clip-path="url(#id26)"><g clip-path="url(#id27)"><path stroke-linecap="butt" transform="matrix(-0.748459, -0.000000000000000092, 0.000000000000000093, -0.75865, 275.942506, 82.323011)" fill="none" stroke-linejoin="miter" d="M 66.372225 0.987007 L 127.523922 35.593084 C 127.732684 35.71151 127.837065 35.953511 127.774437 36.185213 C 127.711808 36.416916 127.503046 36.576534 127.268188 36.576534 L 2.000369 36.576534 C 1.760292 36.576534 1.55153 36.416916 1.488901 36.185213 C 1.431492 35.953511 1.530654 35.71151 1.739416 35.593084 L 62.891113 0.987007 C 63.971458 0.374282 65.29188 0.374282 66.372225 0.987007 " stroke="#000000" stroke-width="2" stroke-opacity="1" stroke-miterlimit="4"/></g></g><g clip-path="url(#id28)"><path fill="#ffffff" d="M 228.671875 28.203125 L 274.441406 54.457031 C 274.597656 54.546875 274.671875 54.730469 274.628906 54.90625 C 274.582031 55.082031 274.425781 55.203125 274.246094 55.203125 L 180.488281 55.203125 C 180.3125 55.203125 180.15625 55.082031 180.109375 54.90625 C 180.0625 54.730469 180.140625 54.546875 180.296875 54.457031 L 226.066406 28.203125 C 226.875 27.738281 227.863281 27.738281 228.671875 28.203125 " fill-opacity="1" fill-rule="nonzero"/></g><g clip-path="url(#id29)"><g clip-path="url(#id30)"><path stroke-linecap="butt" transform="matrix(0.748459, 0, 0, 0.75865, 178.993308, 27.455019)" fill="none" stroke-linejoin="miter" d="M 66.374477 0.986101 L 127.526174 35.592179 C 127.734936 35.710605 127.834098 35.952606 127.776689 36.184308 C 127.71406 36.416011 127.505298 36.575628 127.265221 36.575628 L 1.997402 36.575628 C 1.762544 36.575628 1.553782 36.416011 1.491153 36.184308 C 1.428525 35.952606 1.532906 35.710605 1.741668 35.592179 L 62.893365 0.986101 C 63.97371 0.373377 65.294132 0.373377 66.374477 0.986101 " stroke="#000000" stroke-width="2" stroke-opacity="1" stroke-miterlimit="4"/></g></g><g clip-path="url(#id31)"><g clip-path="url(#id32)"><path fill="#ffffff" d="M 132.652344 188.796875 L 132.417969 136.03125 C 132.417969 135.851562 132.539062 135.695312 132.710938 135.644531 C 132.886719 135.597656 133.070312 135.671875 133.160156 135.828125 L 180.175781 216.945312 C 180.265625 217.097656 180.238281 217.296875 180.109375 217.421875 C 179.980469 217.550781 179.78125 217.578125 179.625 217.488281 L 133.960938 191.050781 C 133.152344 190.585938 132.65625 189.730469 132.652344 188.796875 " fill-opacity="1" fill-rule="nonzero"/></g></g><g clip-path="url(#id33)"><g clip-path="url(#id34)"><g clip-path="url(#id35)"><g clip-path="url(#id36)"><path stroke-linecap="butt" transform="matrix(-0.375304, -0.647563, 0.65638, -0.380415, 156.916297, 232.153343)" fill="none" stroke-linejoin="miter" d="M 66.374536 0.985239 L 127.526947 35.593826 C 127.73466 35.712592 127.834152 35.953967 127.777705 36.183544 C 127.714125 36.414994 127.50533 36.575316 127.264518 36.574503 L 1.997121 36.577914 C 1.760825 36.579683 1.548854 36.416824 1.490719 36.187194 C 1.42807 35.954983 1.529929 35.709713 1.738467 35.590902 L 62.892388 0.987874 C 63.971457 0.372963 65.292714 0.372628 66.374536 0.985239 " stroke="#000000" stroke-width="2" stroke-opacity="1" stroke-miterlimit="4"/></g></g></g></g><g clip-path="url(#id37)"><g clip-path="url(#id38)"><path fill="#ffffff" d="M 180.039062 164.117188 L 180.273438 216.882812 C 180.273438 217.058594 180.152344 217.21875 179.976562 217.269531 C 179.804688 217.316406 179.617188 217.242188 179.527344 217.085938 L 132.515625 135.96875 C 132.425781 135.816406 132.453125 135.617188 132.582031 135.492188 C 132.710938 135.363281 132.910156 135.335938 133.066406 135.425781 L 178.730469 161.863281 C 179.539062 162.328125 180.035156 163.183594 180.039062 164.117188 " fill-opacity="1" fill-rule="nonzero"/></g></g><g clip-path="url(#id39)"><g clip-path="url(#id40)"><g clip-path="url(#id41)"><g clip-path="url(#id42)"><path stroke-linecap="butt" transform="matrix(0.375304, 0.647563, -0.65638, 0.380415, 155.773984, 120.760598)" fill="none" stroke-linejoin="miter" d="M 66.37543 0.984037 L 127.527841 35.592623 C 127.731039 35.708807 127.835047 35.952764 127.775982 36.186796 C 127.715019 36.413792 127.503607 36.578569 127.262796 36.577755 L 1.998015 36.576712 C 1.761719 36.57848 1.549748 36.415621 1.491614 36.185992 C 1.428964 35.95378 1.530824 35.70851 1.739361 35.589699 L 62.893283 0.986671 C 63.972351 0.371761 65.293608 0.371425 66.37543 0.984037 " stroke="#000000" stroke-width="2" stroke-opacity="1" stroke-miterlimit="4"/></g></g></g></g><g clip-path="url(#id43)"><g clip-path="url(#id44)"><path fill="#ffffff" d="M 226.132812 190.890625 L 180.453125 217.300781 C 180.296875 217.390625 180.101562 217.363281 179.972656 217.238281 C 179.84375 217.109375 179.816406 216.914062 179.90625 216.757812 L 226.960938 135.667969 C 227.050781 135.511719 227.238281 135.4375 227.410156 135.484375 C 227.585938 135.535156 227.707031 135.695312 227.707031 135.875 L 227.441406 188.636719 C 227.4375 189.570312 226.941406 190.425781 226.132812 190.890625 " fill-opacity="1" fill-rule="nonzero"/></g></g><g clip-path="url(#id45)"><g clip-path="url(#id46)"><g clip-path="url(#id47)"><g clip-path="url(#id48)"><path stroke-linecap="butt" transform="matrix(-0.375658, 0.647358, -0.656172, -0.380773, 251.714489, 148.299321)" fill="none" stroke-linejoin="miter" d="M 66.373407 0.987515 L 127.525359 35.593482 C 127.733963 35.712181 127.833339 35.952942 127.775332 36.182603 C 127.71281 36.414848 127.505443 36.575238 127.264632 36.576181 L 2.002653 36.577656 C 1.761842 36.578599 1.550339 36.413936 1.48925 36.186973 C 1.430056 35.952973 1.533928 35.70896 1.741576 35.590082 L 62.891258 0.986758 C 63.972741 0.373563 65.293998 0.373187 66.373407 0.987515 " stroke="#000000" stroke-width="2" stroke-opacity="1" stroke-miterlimit="4"/></g></g></g></g><g clip-path="url(#id49)"><g clip-path="url(#id50)"><path fill="#ffffff" d="M 181.179688 162.023438 L 226.859375 135.613281 C 227.015625 135.523438 227.210938 135.546875 227.339844 135.675781 C 227.46875 135.804688 227.496094 136 227.40625 136.15625 L 180.351562 217.246094 C 180.261719 217.402344 180.078125 217.476562 179.902344 217.425781 C 179.726562 217.378906 179.605469 217.21875 179.605469 217.039062 L 179.871094 164.273438 C 179.875 163.34375 180.371094 162.488281 181.179688 162.023438 " fill-opacity="1" fill-rule="nonzero"/></g></g><g clip-path="url(#id51)"><g clip-path="url(#id52)"><g clip-path="url(#id53)"><g clip-path="url(#id54)"><path stroke-linecap="butt" transform="matrix(0.375658, -0.647358, 0.656172, 0.380773, 155.598378, 204.613962)" fill="none" stroke-linejoin="miter" d="M 66.37226 0.987612 L 127.524213 35.593579 C 127.732816 35.712278 127.836706 35.950455 127.774185 36.1827 C 127.711664 36.414945 127.504297 36.575335 127.263485 36.576278 L 2.001506 36.577753 C 1.760695 36.578696 1.551811 36.418486 1.492617 36.184486 C 1.428909 35.95307 1.532782 35.709057 1.740429 35.590179 L 62.894626 0.98427 C 63.971594 0.37366 65.292851 0.373284 66.37226 0.987612 " stroke="#000000" stroke-width="2" stroke-opacity="1" stroke-miterlimit="4"/></g></g></g></g><g clip-path="url(#id55)"><path fill="#ffffff" d="M 179.09375 162.640625 L 133.324219 136.386719 C 133.167969 136.296875 133.089844 136.113281 133.136719 135.9375 C 133.183594 135.761719 133.339844 135.640625 133.519531 135.640625 L 227.273438 135.640625 C 227.453125 135.640625 227.609375 135.761719 227.65625 135.9375 C 227.703125 136.113281 227.625 136.296875 227.46875 136.386719 L 181.699219 162.640625 C 180.890625 163.105469 179.902344 163.105469 179.09375 162.640625 " fill-opacity="1" fill-rule="nonzero"/></g><g clip-path="url(#id56)"><g clip-path="url(#id57)"><path stroke-linecap="butt" transform="matrix(-0.748459, -0.000000000000000092, 0.000000000000000093, -0.75865, 228.771597, 163.389731)" fill="none" stroke-linejoin="miter" d="M 66.373514 0.987419 L 127.525212 35.593497 C 127.733974 35.711923 127.838355 35.953924 127.775726 36.185626 C 127.713098 36.417329 127.504335 36.576946 127.264259 36.576946 L 2.001659 36.576946 C 1.761582 36.576946 1.55282 36.417329 1.490191 36.185626 C 1.427562 35.953924 1.531943 35.711923 1.740706 35.593497 L 62.892403 0.987419 C 63.972748 0.374695 65.293169 0.374695 66.373514 0.987419 " stroke="#000000" stroke-width="2" stroke-opacity="1" stroke-miterlimit="4"/></g></g><g clip-path="url(#id58)"><path fill="#ffffff" d="M 181.5 109.269531 L 227.269531 135.523438 C 227.425781 135.613281 227.503906 135.796875 227.457031 135.972656 C 227.410156 136.148438 227.253906 136.269531 227.074219 136.269531 L 133.320312 136.269531 C 133.140625 136.269531 132.984375 136.148438 132.9375 135.972656 C 132.890625 135.796875 132.96875 135.613281 133.125 135.523438 L 178.894531 109.269531 C 179.703125 108.804688 180.691406 108.804688 181.5 109.269531 " fill-opacity="1" fill-rule="nonzero"/></g><g clip-path="url(#id59)"><g clip-path="url(#id60)"><path stroke-linecap="butt" transform="matrix(0.748459, 0, 0, 0.75865, 131.822369, 108.521726)" fill="none" stroke-linejoin="miter" d="M 66.373226 0.985704 L 127.524923 35.591782 C 127.733685 35.710208 127.838066 35.952209 127.775438 36.183911 C 127.712809 36.415614 127.504047 36.575231 127.26397 36.575231 L 2.00137 36.575231 C 1.761293 36.575231 1.552531 36.415614 1.489902 36.183911 C 1.427274 35.952209 1.531655 35.710208 1.740417 35.591782 L 62.892114 0.985704 C 63.972459 0.37298 65.292881 0.37298 66.373226 0.985704 " stroke="#000000" stroke-width="2" stroke-opacity="1" stroke-miterlimit="4"/></g></g><g clip-path="url(#id61)"><g clip-path="url(#id62)"><path fill="#ffffff" d="M 131.386719 191.28125 L 85.707031 217.691406 C 85.550781 217.78125 85.351562 217.753906 85.222656 217.625 C 85.09375 217.5 85.066406 217.300781 85.15625 217.148438 L 132.214844 136.054688 C 132.304688 135.902344 132.488281 135.828125 132.664062 135.875 C 132.839844 135.925781 132.960938 136.082031 132.957031 136.261719 L 132.695312 189.027344 C 132.691406 189.960938 132.195312 190.816406 131.386719 191.28125 " fill-opacity="1" fill-rule="nonzero"/></g></g><g clip-path="url(#id63)"><g clip-path="url(#id64)"><g clip-path="url(#id65)"><g clip-path="url(#id66)"><path stroke-linecap="butt" transform="matrix(-0.375658, 0.647358, -0.656172, -0.380773, 156.966937, 148.688808)" fill="none" stroke-linejoin="miter" d="M 66.373745 0.9851 L 127.525698 35.591067 C 127.734301 35.709766 127.836296 35.954981 127.773775 36.187226 C 127.715768 36.416887 127.503887 36.57986 127.26759 36.578219 L 1.998477 36.577825 C 1.76218 36.576184 1.553296 36.415974 1.489588 36.184558 C 1.430394 35.950558 1.529753 35.709129 1.74002 35.594705 L 62.891597 0.984342 C 63.973079 0.371148 65.294336 0.370772 66.373745 0.9851 " stroke="#000000" stroke-width="2" stroke-opacity="1" stroke-miterlimit="4"/></g></g></g></g><g clip-path="url(#id67)"><g clip-path="url(#id68)"><path fill="#ffffff" d="M 86.429688 162.410156 L 132.109375 136 C 132.265625 135.910156 132.464844 135.9375 132.59375 136.066406 C 132.722656 136.191406 132.75 136.390625 132.660156 136.542969 L 85.601562 217.636719 C 85.511719 217.792969 85.328125 217.867188 85.152344 217.816406 C 84.980469 217.769531 84.859375 217.609375 84.859375 217.429688 L 85.125 164.664062 C 85.128906 163.734375 85.625 162.878906 86.429688 162.410156 " fill-opacity="1" fill-rule="nonzero"/></g></g><g clip-path="url(#id69)"><g clip-path="url(#id70)"><g clip-path="url(#id71)"><g clip-path="url(#id72)"><path stroke-linecap="butt" transform="matrix(0.375658, -0.647358, 0.656172, 0.380773, 60.850825, 205.003448)" fill="none" stroke-linejoin="miter" d="M 66.373818 0.982992 L 127.525771 35.58896 C 127.734374 35.707658 127.836369 35.952873 127.773848 36.185118 C 127.715841 36.414779 127.50396 36.577752 127.267663 36.576111 L 1.99855 36.575717 C 1.757739 36.57666 1.548855 36.416451 1.489661 36.18245 C 1.428572 35.955488 1.532445 35.711475 1.740092 35.592597 L 62.894289 0.986688 C 63.971258 0.376078 65.292514 0.375702 66.373818 0.982992 " stroke="#000000" stroke-width="2" stroke-opacity="1" stroke-miterlimit="4"/></g></g></g></g><g clip-path="url(#id73)"><path fill="#ffffff" d="M 131.558594 244.179688 L 85.789062 217.921875 C 85.632812 217.835938 85.554688 217.648438 85.601562 217.472656 C 85.644531 217.300781 85.800781 217.175781 85.980469 217.175781 L 179.738281 217.175781 C 179.917969 217.175781 180.074219 217.300781 180.117188 217.472656 C 180.164062 217.648438 180.085938 217.835938 179.933594 217.921875 L 134.164062 244.179688 C 133.355469 244.640625 132.363281 244.640625 131.558594 244.179688 " fill-opacity="1" fill-rule="nonzero"/></g><g clip-path="url(#id74)"><g clip-path="url(#id75)"><path stroke-linecap="butt" transform="matrix(-0.748459, -0.000000000000000092, 0.000000000000000093, -0.75865, 181.234637, 244.925756)" fill="none" stroke-linejoin="miter" d="M 66.371104 0.983416 L 127.522802 35.594643 C 127.731564 35.707919 127.835945 35.955069 127.773316 36.186772 C 127.715907 36.413325 127.507144 36.578092 127.267068 36.578092 L 1.999249 36.578092 C 1.759172 36.578092 1.55041 36.413325 1.493 36.186772 C 1.430371 35.955069 1.534752 35.707919 1.738296 35.594643 L 62.889993 0.983416 C 63.970338 0.37584 65.295978 0.37584 66.371104 0.983416 " stroke="#000000" stroke-width="2" stroke-opacity="1" stroke-miterlimit="4"/></g></g><g clip-path="url(#id76)"><path fill="#ffffff" d="M 133.964844 190.804688 L 179.734375 217.058594 C 179.886719 217.148438 179.964844 217.332031 179.917969 217.507812 C 179.875 217.683594 179.71875 217.808594 179.539062 217.808594 L 85.78125 217.808594 C 85.601562 217.808594 85.445312 217.683594 85.402344 217.507812 C 85.355469 217.332031 85.433594 217.148438 85.589844 217.058594 L 131.359375 190.804688 C 132.164062 190.339844 133.15625 190.339844 133.964844 190.804688 " fill-opacity="1" fill-rule="nonzero"/></g><g clip-path="url(#id77)"><g clip-path="url(#id78)"><path stroke-linecap="butt" transform="matrix(0.748459, 0, 0, 0.75865, 84.285424, 190.057752)" fill="none" stroke-linejoin="miter" d="M 66.375616 0.984559 L 127.527314 35.590637 C 127.730857 35.709063 127.835238 35.951064 127.772609 36.182766 C 127.7152 36.414469 127.506437 36.579235 127.266361 36.579235 L 1.998542 36.579235 C 1.758465 36.579235 1.549703 36.414469 1.492293 36.182766 C 1.429664 35.951064 1.534045 35.709063 1.742808 35.590637 L 62.894505 0.984559 C 63.969631 0.371834 65.295272 0.371834 66.375616 0.984559 " stroke="#000000" stroke-width="2" stroke-opacity="1" stroke-miterlimit="4"/></g></g><g clip-path="url(#id79)"><g clip-path="url(#id80)"><path fill="#ffffff" d="M 179.824219 270.332031 L 179.589844 217.570312 C 179.585938 217.390625 179.707031 217.230469 179.882812 217.183594 C 180.058594 217.132812 180.242188 217.207031 180.332031 217.363281 L 227.34375 298.480469 C 227.433594 298.636719 227.40625 298.832031 227.277344 298.960938 C 227.148438 299.085938 226.953125 299.113281 226.796875 299.023438 L 181.128906 272.589844 C 180.324219 272.121094 179.828125 271.265625 179.824219 270.332031 " fill-opacity="1" fill-rule="nonzero"/></g></g><g clip-path="url(#id81)"><g clip-path="url(#id82)"><g clip-path="url(#id83)"><g clip-path="url(#id84)"><path stroke-linecap="butt" transform="matrix(-0.375304, -0.647563, 0.65638, -0.380415, 204.087221, 313.689354)" fill="none" stroke-linejoin="miter" d="M 66.374886 0.986888 L 127.522782 35.592893 C 127.733112 35.707204 127.83712 35.951161 127.77354 36.182611 C 127.714475 36.416644 127.505681 36.576966 127.264869 36.576152 L 2.000089 36.575109 C 1.759277 36.574295 1.551821 36.414018 1.489171 36.181807 C 1.431037 35.952177 1.53028 35.711362 1.738817 35.592551 L 62.890841 0.982486 C 63.971808 0.374613 65.293064 0.374277 66.374886 0.986888 " stroke="#000000" stroke-width="2" stroke-opacity="1" stroke-miterlimit="4"/></g></g></g></g><g clip-path="url(#id85)"><g clip-path="url(#id86)"><path fill="#ffffff" d="M 227.207031 245.652344 L 227.445312 298.417969 C 227.445312 298.597656 227.324219 298.753906 227.148438 298.804688 C 226.972656 298.851562 226.789062 298.777344 226.699219 298.625 L 179.6875 217.507812 C 179.597656 217.351562 179.625 217.15625 179.753906 217.027344 C 179.882812 216.898438 180.082031 216.875 180.234375 216.964844 L 225.902344 243.398438 C 226.707031 243.863281 227.203125 244.71875 227.207031 245.652344 " fill-opacity="1" fill-rule="nonzero"/></g></g><g clip-path="url(#id87)"><g clip-path="url(#id88)"><g clip-path="url(#id89)"><g clip-path="url(#id90)"><path stroke-linecap="butt" transform="matrix(0.375304, 0.647563, -0.65638, 0.380415, 202.944908, 202.296623)" fill="none" stroke-linejoin="miter" d="M 66.372446 0.986833 L 127.527474 35.590965 C 127.735187 35.709731 127.834679 35.951105 127.775615 36.185138 C 127.712035 36.416588 127.50324 36.57691 127.266944 36.578679 L 2.002164 36.577635 C 1.761352 36.576822 1.553896 36.416544 1.491246 36.184333 C 1.428597 35.952121 1.534972 35.709433 1.740892 35.595077 L 62.892916 0.985012 C 63.969367 0.374557 65.290624 0.374221 66.372446 0.986833 " stroke="#000000" stroke-width="2" stroke-opacity="1" stroke-miterlimit="4"/></g></g></g></g><g clip-path="url(#id91)"><g clip-path="url(#id92)"><path fill="#ffffff" d="M 273.304688 272.425781 L 227.625 298.835938 C 227.46875 298.925781 227.269531 298.902344 227.140625 298.773438 C 227.011719 298.644531 226.984375 298.449219 227.078125 298.292969 L 274.132812 217.203125 C 274.222656 217.046875 274.40625 216.972656 274.582031 217.023438 C 274.757812 217.070312 274.878906 217.230469 274.878906 217.410156 L 274.613281 270.175781 C 274.609375 271.105469 274.113281 271.960938 273.304688 272.425781 " fill-opacity="1" fill-rule="nonzero"/></g></g><g clip-path="url(#id93)"><g clip-path="url(#id94)"><g clip-path="url(#id95)"><g clip-path="url(#id96)"><path stroke-linecap="butt" transform="matrix(-0.375658, 0.647358, -0.656172, -0.380773, 298.885415, 229.835347)" fill="none" stroke-linejoin="miter" d="M 66.371767 0.987009 L 127.523719 35.592976 C 127.732323 35.711674 127.838832 35.954305 127.776311 36.18655 C 127.71379 36.418795 127.506423 36.579184 127.262992 36.575674 L 2.001013 36.577149 C 1.760201 36.578092 1.551318 36.417883 1.492124 36.183882 C 1.428416 35.952466 1.532288 35.708454 1.739936 35.589576 L 62.894133 0.983667 C 63.971101 0.373056 65.292358 0.37268 66.371767 0.987009 " stroke="#000000" stroke-width="2" stroke-opacity="1" stroke-miterlimit="4"/></g></g></g></g><g clip-path="url(#id97)"><g clip-path="url(#id98)"><path fill="#ffffff" d="M 228.347656 243.558594 L 274.03125 217.148438 C 274.183594 217.058594 274.382812 217.085938 274.511719 217.210938 C 274.640625 217.339844 274.667969 217.535156 274.578125 217.691406 L 227.519531 298.78125 C 227.429688 298.9375 227.246094 299.011719 227.074219 298.964844 C 226.898438 298.914062 226.777344 298.753906 226.777344 298.574219 L 227.042969 245.8125 C 227.046875 244.878906 227.542969 244.023438 228.347656 243.558594 " fill-opacity="1" fill-rule="nonzero"/></g></g><g clip-path="url(#id99)"><g clip-path="url(#id100)"><g clip-path="url(#id101)"><g clip-path="url(#id102)"><path stroke-linecap="butt" transform="matrix(0.375658, -0.647358, 0.656172, 0.380773, 202.769302, 286.150001)" fill="none" stroke-linejoin="miter" d="M 66.371299 0.983659 L 127.525871 35.594079 C 127.731855 35.708324 127.83385 35.953539 127.775843 36.1832 C 127.713322 36.415445 127.505955 36.575834 127.265144 36.576778 L 2.000545 36.573799 C 1.759734 36.574742 1.55085 36.414533 1.489762 36.18757 C 1.430567 35.95357 1.53444 35.709557 1.742087 35.590679 L 62.89177 0.987354 C 63.973253 0.37416 65.294509 0.373784 66.371299 0.983659 " stroke="#000000" stroke-width="2" stroke-opacity="1" stroke-miterlimit="4"/></g></g></g></g><g clip-path="url(#id103)"><path fill="#ffffff" d="M 226.265625 244.179688 L 180.496094 217.921875 C 180.339844 217.835938 180.261719 217.648438 180.308594 217.472656 C 180.355469 217.300781 180.511719 217.175781 180.6875 217.175781 L 274.445312 217.175781 C 274.625 217.175781 274.78125 217.300781 274.828125 217.472656 C 274.871094 217.648438 274.796875 217.835938 274.640625 217.921875 L 228.871094 244.179688 C 228.0625 244.640625 227.074219 244.640625 226.265625 244.179688 " fill-opacity="1" fill-rule="nonzero"/></g><g clip-path="url(#id104)"><g clip-path="url(#id105)"><path stroke-linecap="butt" transform="matrix(-0.748459, -0.000000000000000092, 0.000000000000000093, -0.75865, 275.942506, 244.925756)" fill="none" stroke-linejoin="miter" d="M 66.372225 0.983416 L 127.523922 35.594643 C 127.732684 35.707919 127.837065 35.955069 127.774437 36.186772 C 127.711808 36.413325 127.503046 36.578092 127.268188 36.578092 L 2.000369 36.578092 C 1.760292 36.578092 1.55153 36.413325 1.488901 36.186772 C 1.431492 35.955069 1.530654 35.707919 1.739416 35.594643 L 62.891113 0.983416 C 63.971458 0.37584 65.29188 0.37584 66.372225 0.983416 " stroke="#000000" stroke-width="2" stroke-opacity="1" stroke-miterlimit="4"/></g></g><g clip-path="url(#id106)"><path fill="#ffffff" d="M 228.671875 190.804688 L 274.441406 217.058594 C 274.597656 217.148438 274.671875 217.332031 274.628906 217.507812 C 274.582031 217.683594 274.425781 217.808594 274.246094 217.808594 L 180.488281 217.808594 C 180.3125 217.808594 180.15625 217.683594 180.109375 217.507812 C 180.0625 217.332031 180.140625 217.148438 180.296875 217.058594 L 226.066406 190.804688 C 226.875 190.339844 227.863281 190.339844 228.671875 190.804688 " fill-opacity="1" fill-rule="nonzero"/></g><g clip-path="url(#id107)"><g clip-path="url(#id108)"><path stroke-linecap="butt" transform="matrix(0.748459, 0, 0, 0.75865, 178.993308, 190.057752)" fill="none" stroke-linejoin="miter" d="M 66.374477 0.984559 L 127.526174 35.590637 C 127.734936 35.709063 127.834098 35.951064 127.776689 36.182766 C 127.71406 36.414469 127.505298 36.579235 127.265221 36.579235 L 1.997402 36.579235 C 1.762544 36.579235 1.553782 36.414469 1.491153 36.182766 C 1.428525 35.951064 1.532906 35.709063 1.741668 35.590637 L 62.893365 0.984559 C 63.97371 0.371834 65.294132 0.371834 66.374477 0.984559 " stroke="#000000" stroke-width="2" stroke-opacity="1" stroke-miterlimit="4"/></g></g><g clip-path="url(#id109)"><g clip-path="url(#id110)"><path fill="#ffffff" d="M 179.449219 272.425781 L 133.769531 298.835938 C 133.613281 298.925781 133.414062 298.902344 133.285156 298.773438 C 133.15625 298.644531 133.128906 298.449219 133.21875 298.292969 L 180.277344 217.203125 C 180.367188 217.046875 180.550781 216.972656 180.726562 217.023438 C 180.898438 217.070312 181.019531 217.230469 181.019531 217.410156 L 180.757812 270.175781 C 180.75 271.105469 180.253906 271.960938 179.449219 272.425781 " fill-opacity="1" fill-rule="nonzero"/></g></g><g clip-path="url(#id111)"><g clip-path="url(#id112)"><g clip-path="url(#id113)"><g clip-path="url(#id114)"><path stroke-linecap="butt" transform="matrix(-0.375658, 0.647358, -0.656172, -0.380773, 205.028237, 229.835347)" fill="none" stroke-linejoin="miter" d="M 66.370621 0.98506 L 127.522573 35.591027 C 127.731176 35.709726 127.837686 35.952356 127.775165 36.184602 C 127.712644 36.416847 127.505277 36.577236 127.264465 36.578179 L 1.999866 36.575201 C 1.759055 36.576144 1.550172 36.415934 1.490978 36.181934 C 1.429889 35.954971 1.533762 35.710959 1.741409 35.592081 L 62.892986 0.981718 C 63.972574 0.375561 65.293831 0.375185 66.370621 0.98506 " stroke="#000000" stroke-width="2" stroke-opacity="1" stroke-miterlimit="4"/></g></g></g></g><g clip-path="url(#id115)"><g clip-path="url(#id116)"><path fill="#ffffff" d="M 134.492188 243.558594 L 180.171875 217.148438 C 180.328125 217.058594 180.527344 217.085938 180.65625 217.210938 C 180.785156 217.339844 180.8125 217.535156 180.722656 217.691406 L 133.664062 298.78125 C 133.574219 298.9375 133.390625 299.011719 133.214844 298.964844 C 133.039062 298.914062 132.917969 298.753906 132.921875 298.574219 L 133.183594 245.8125 C 133.1875 244.878906 133.683594 244.023438 134.492188 243.558594 " fill-opacity="1" fill-rule="nonzero"/></g></g><g clip-path="url(#id117)"><g clip-path="url(#id118)"><g clip-path="url(#id119)"><g clip-path="url(#id120)"><path stroke-linecap="butt" transform="matrix(0.375658, -0.647358, 0.656172, 0.380773, 108.91212, 286.150001)" fill="none" stroke-linejoin="miter" d="M 66.372448 0.985613 L 127.524401 35.59158 C 127.733004 35.710278 127.835 35.955493 127.776992 36.185154 C 127.714471 36.417399 127.507104 36.577788 127.266293 36.578731 L 2.001694 36.575753 C 1.760883 36.576696 1.552 36.416487 1.488291 36.185071 C 1.429097 35.95107 1.53297 35.707058 1.743237 35.592633 L 62.8903 0.984855 C 63.971782 0.37166 65.293039 0.371284 66.372448 0.985613 " stroke="#000000" stroke-width="2" stroke-opacity="1" stroke-miterlimit="4"/></g></g></g></g><g clip-path="url(#id121)"><path fill="#ffffff" d="M 179.09375 325.566406 L 133.324219 299.3125 C 133.167969 299.222656 133.089844 299.039062 133.136719 298.863281 C 133.183594 298.6875 133.339844 298.566406 133.519531 298.566406 L 227.273438 298.566406 C 227.453125 298.566406 227.609375 298.6875 227.65625 298.863281 C 227.703125 299.039062 227.625 299.222656 227.46875 299.3125 L 181.699219 325.566406 C 180.890625 326.03125 179.902344 326.03125 179.09375 325.566406 " fill-opacity="1" fill-rule="nonzero"/></g><g clip-path="url(#id122)"><g clip-path="url(#id123)"><path stroke-linecap="butt" transform="matrix(-0.748459, -0.000000000000000092, 0.000000000000000093, -0.75865, 228.771597, 326.314901)" fill="none" stroke-linejoin="miter" d="M 66.373514 0.986614 L 127.525212 35.592692 C 127.733974 35.711118 127.838355 35.953118 127.775726 36.184821 C 127.713098 36.416523 127.504335 36.576141 127.264259 36.576141 L 2.001659 36.576141 C 1.761582 36.576141 1.55282 36.416523 1.490191 36.184821 C 1.427562 35.953118 1.531943 35.711118 1.740706 35.592692 L 62.892403 0.986614 C 63.972748 0.373889 65.293169 0.373889 66.373514 0.986614 " stroke="#000000" stroke-width="2" stroke-opacity="1" stroke-miterlimit="4"/></g></g><g clip-path="url(#id124)"><path fill="#ffffff" d="M 181.5 272.195312 L 227.269531 298.449219 C 227.425781 298.539062 227.503906 298.722656 227.457031 298.898438 C 227.410156 299.074219 227.253906 299.195312 227.074219 299.195312 L 133.320312 299.195312 C 133.140625 299.195312 132.984375 299.074219 132.9375 298.898438 C 132.890625 298.722656 132.96875 298.539062 133.125 298.449219 L 178.894531 272.195312 C 179.703125 271.730469 180.691406 271.730469 181.5 272.195312 " fill-opacity="1" fill-rule="nonzero"/></g><g clip-path="url(#id125)"><g clip-path="url(#id126)"><path stroke-linecap="butt" transform="matrix(0.748459, 0, 0, 0.75865, 131.822369, 271.446897)" fill="none" stroke-linejoin="miter" d="M 66.373226 0.98651 L 127.524923 35.592588 C 127.733685 35.711014 127.838066 35.953014 127.775438 36.184717 C 127.712809 36.41642 127.504047 36.576037 127.26397 36.576037 L 2.00137 36.576037 C 1.761293 36.576037 1.552531 36.41642 1.489902 36.184717 C 1.427274 35.953014 1.531655 35.711014 1.740417 35.592588 L 62.892114 0.98651 C 63.972459 0.373785 65.292881 0.373785 66.373226 0.98651 " stroke="#000000" stroke-width="2" stroke-opacity="1" stroke-miterlimit="4"/></g></g></svg>